# xmcd
#
# Track frame offsets: 
#        150
#        21474
#        40316
#        66944
#        90141
#        112977
#        130739
#        154942
#        175840
#        197912
#        218862
#
# Disc length: 3131 seconds
#
# Revision: 10
# Processed by: cddbd v1.5.2PL0 Copyright (c) Steve Scherf et al.
# Submitted via: ExactAudioCopyFreeDBPlugin 1.0
#
DISCID=940c390b
DTITLE=Ibrahim Ferrer - Buena Vista Social Club
DYEAR=1999
DGENRE=Latin
TTITLE0=Bruca Maniguá
TTITLE1=Herido de Sombras
TTITLE2=Marieta
TTITLE3=Guateque Campesino
TTITLE4=Mami Me Gusto
TTITLE5=Nuestra Ultima Cita
TTITLE6=Cienfuegos Tiene Su Guaguancó
TTITLE7=Silencio
TTITLE8=Aquellos Ojos Verdes
TTITLE9=Qué Bueno Baila Usted
TTITLE10=Como Fue
EXTD=YEAR: 1999
EXTT0=
EXTT1=
EXTT2=
EXTT3=
EXTT4=
EXTT5=
EXTT6=
EXTT7=
EXTT8=
EXTT9=
EXTT10=
PLAYORDER=
